<svg xmlns="http://www.w3.org/2000/svg" width="400" height="300"><path d="M34.94 177.98L21.27 177.98L21.27 119.36L34.94 119.36L34.94 142.74L54.45 142.74L54.45 119.36L68.12 119.36L68.12 177.98L54.45 177.98L54.45 154.99L34.94 154.99L34.94 177.98ZM88.58 178.45L88.58 178.45L88.58 178.45Q82.97 178.45 79.77 175.02L79.77 175.02L79.77 175.02Q76.57 171.58 76.57 165.65L76.57 165.65L76.57 135.48L90.24 135.48L90.24 161.39L90.24 161.39Q90.24 164.39 91.66 165.42L91.66 165.42L91.66 165.42Q93.08 166.44 95.37 166.44L95.37 166.44L95.37 166.44Q96.95 166.44 99.04 165.65L99.04 165.65L99.04 165.65Q101.14 164.86 102.48 163.68L102.48 163.68L102.48 135.48L116.07 135.48L116.07 177.98L104.77 177.98L102.48 173.79L102.48 173.79Q99.72 175.53 96.12 176.99L96.12 176.99L96.12 176.99Q92.53 178.45 88.58 178.45ZM142.45 178.37L142.45 178.37L142.45 178.37Q135.34 178.37 131.00 176.52L131.00 176.52L131.00 176.52Q126.65 174.66 124.72 169.96L124.72 169.96L124.72 169.96Q122.78 165.26 122.78 156.81L122.78 156.81L122.78 156.81Q122.78 148.12 124.56 143.34L124.56 143.34L124.56 143.34Q126.34 138.56 130.53 136.66L130.53 136.66L130.53 136.66Q134.71 134.77 141.90 134.77L141.90 134.77L141.90 134.77Q148.46 134.77 152.33 136.03L152.33 136.03L152.33 136.03Q156.20 137.29 157.90 140.53L157.90 140.53L157.90 140.53Q159.60 143.77 159.60 149.70L159.60 149.70L159.60 149.70Q159.60 154.12 157.86 156.73L157.86 156.73L157.86 156.73Q156.12 159.33 152.92 160.40L152.92 160.40L152.92 160.40Q149.72 161.47 145.38 161.47L145.38 161.47L136.29 161.47L136.29 161.47Q136.53 164.00 137.28 165.50L137.28 165.50L137.28 165.50Q138.03 167.00 140.08 167.63L140.08 167.63L140.08 167.63Q142.14 168.26 146.17 168.26L146.17 168.26L158.10 168.26L158.10 176.24L158.10 176.24Q155.17 176.95 151.42 177.66L151.42 177.66L151.42 177.66Q147.67 178.37 142.45 178.37ZM136.13 153.41L136.13 153.41L143.88 153.41L143.88 153.41Q145.85 153.41 146.72 152.62L146.72 152.62L146.72 152.62Q147.59 151.83 147.59 149.78L147.59 149.78L147.59 149.78Q147.59 147.88 147.04 146.73L147.04 146.73L147.04 146.73Q146.48 145.59 145.22 145.07L145.22 145.07L145.22 145.07Q143.96 144.56 141.90 144.56L141.90 144.56L141.90 144.56Q139.85 144.56 138.58 145.31L138.58 145.31L138.58 145.31Q137.32 146.06 136.73 148.00L136.73 148.00L136.73 148.00Q136.13 149.93 136.13 153.41ZM179.98 177.98L166.31 177.98L166.31 135.48L176.90 135.48L179.98 141.64L179.98 141.64Q182.03 138.87 184.72 136.86L184.72 136.86L184.72 136.86Q187.41 134.84 191.12 134.84L191.12 134.84L191.12 134.84Q191.83 134.84 192.74 134.92L192.74 134.92L192.74 134.92Q193.65 135.00 194.44 135.24L194.44 135.24L194.44 149.22L194.44 149.22Q193.17 149.06 191.83 148.99L191.83 148.99L191.83 148.99Q190.49 148.91 189.30 148.91L189.30 148.91L189.30 148.91Q187.25 148.91 185.55 149.34L185.55 149.34L185.55 149.34Q183.85 149.78 182.47 150.60L182.47 150.60L182.47 150.60Q181.09 151.43 179.98 152.78L179.98 152.78L179.98 177.98ZM226.04 177.98L217.74 177.98L217.74 177.98Q212.61 177.98 209.41 176.52L209.41 176.52L209.41 176.52Q206.21 175.06 204.86 171.66L204.86 171.66L204.86 171.66Q203.52 168.26 203.68 162.42L203.68 162.42L204.07 146.30L197.52 146.30L197.52 137.61L204.63 135.48L206.37 123.55L217.19 123.55L217.19 135.48L226.43 135.48L226.43 146.30L217.19 146.30L217.19 162.34L217.19 162.34Q217.19 163.68 217.43 164.59L217.43 164.59L217.43 164.59Q217.66 165.50 218.14 166.09L218.14 166.09L218.14 166.09Q218.61 166.68 219.24 166.96L219.24 166.96L219.24 166.96Q219.87 167.23 220.66 167.31L220.66 167.31L226.04 167.87L226.04 177.98ZM241.44 178.45L241.44 178.45L241.44 178.45Q236.54 178.45 233.54 175.57L233.54 175.57L233.54 175.57Q230.54 172.69 230.54 167.71L230.54 167.71L230.54 163.60L230.54 163.60Q230.54 158.78 233.98 155.62L233.98 155.62L233.98 155.62Q237.41 152.46 244.76 152.46L244.76 152.46L254.40 152.46L254.40 150.41L254.40 150.41Q254.40 148.67 253.77 147.56L253.77 147.56L253.77 147.56Q253.13 146.46 251.32 145.98L251.32 145.98L251.32 145.98Q249.50 145.51 245.71 145.51L245.71 145.51L233.23 145.51L233.23 137.69L233.23 137.69Q236.39 136.50 240.61 135.75L240.61 135.75L240.61 135.75Q244.84 135.00 250.84 134.92L250.84 134.92L250.84 134.92Q256.14 134.92 260.01 136.19L260.01 136.19L260.01 136.19Q263.88 137.45 265.97 140.57L265.97 140.57L265.97 140.57Q268.06 143.69 268.06 149.46L268.06 149.46L268.06 177.98L257.24 177.98L255.11 173.63L255.11 173.63Q254.40 174.27 253.17 175.09L253.17 175.09L253.17 175.09Q251.95 175.92 250.17 176.71L250.17 176.71L250.17 176.71Q248.39 177.50 246.18 177.98L246.18 177.98L246.18 177.98Q243.97 178.45 241.44 178.45ZM248.47 169.05L248.47 169.05L248.47 169.05Q249.03 169.13 249.78 168.97L249.78 168.97L249.78 168.97Q250.53 168.81 251.24 168.62L251.24 168.62L251.24 168.62Q251.95 168.42 252.62 168.22L252.62 168.22L252.62 168.22Q253.29 168.02 253.73 167.83L253.73 167.83L253.73 167.83Q254.16 167.63 254.40 167.55L254.40 167.55L254.40 158.86L249.34 159.33L249.34 159.33Q246.73 159.65 245.43 160.72L245.43 160.72L245.43 160.72Q244.13 161.78 244.13 163.76L244.13 163.76L244.13 165.42L244.13 165.42Q244.13 166.76 244.68 167.59L244.68 167.59L244.68 167.59Q245.23 168.42 246.22 168.74L246.22 168.74L246.22 168.74Q247.21 169.05 248.47 169.05Z" fill="#28CA4A"/><path d="M290.74 179.21L290.74 179.21L292.67 152.83L292.67 152.83Q293.63 139.56 294.09 133.35L294.09 133.35L294.09 133.35Q294.56 127.14 294.56 127.18L294.56 127.18L294.56 127.18Q294.60 126.48 294.63 126.02L294.63 126.02L294.63 126.02Q294.67 125.56 294.79 125.25L294.79 125.25L294.79 125.25Q294.90 124.94 295.10 124.78L295.10 124.78L295.10 124.78Q295.29 124.63 295.68 124.55L295.68 124.55L309.02 121.35L309.02 121.35Q309.52 121.20 310.06 121.20L310.06 121.20L310.06 121.20Q310.60 121.20 310.80 121.52L310.80 121.52L310.80 121.52Q310.99 121.85 310.99 122.86L310.99 122.86L310.99 122.86Q310.72 125.25 310.56 127.33L310.56 127.33L310.56 127.33Q310.41 129.41 310.31 131.30L310.31 131.30L310.31 131.30Q310.22 133.19 310.14 134.95L310.14 134.95L310.14 134.95Q310.06 136.70 309.95 138.44L309.95 138.44L309.95 138.44Q309.72 140.33 309.54 142.22L309.54 142.22L309.54 142.22Q309.37 144.11 309.21 146.14L309.21 146.14L309.21 146.14Q309.06 148.16 308.89 150.42L308.89 150.42L308.89 150.42Q308.71 152.67 308.48 155.34L308.48 155.34L306.78 175.66L306.78 175.66Q306.75 176.01 306.65 176.34L306.65 176.34L306.65 176.34Q306.55 176.67 306.13 176.86L306.13 176.86L306.13 176.86Q306.09 176.86 305.67 177.01L305.67 177.01L305.67 177.01Q305.24 177.17 304.55 177.42L304.55 177.42L304.55 177.42Q303.85 177.67 302.93 177.94L302.93 177.94L302.93 177.94Q302.00 178.21 300.96 178.44L300.96 178.44L300.96 178.44Q299.22 178.83 297.93 179.21L297.93 179.21L297.93 179.21Q296.64 179.60 295.64 179.93L295.64 179.93L295.64 179.93Q294.63 180.25 293.78 180.45L293.78 180.45L293.78 180.45Q292.94 180.64 292.09 180.64L292.09 180.64L292.09 180.64Q291.51 180.64 291.12 180.33L291.12 180.33L291.12 180.33Q290.74 180.02 290.74 179.21ZM336.02 179.98L336.02 179.98L336.02 179.98Q330.58 179.98 326.48 178.21L326.48 178.21L326.48 178.21Q322.37 176.44 319.59 173.48L319.59 173.48L319.59 173.48Q316.81 170.53 315.43 166.70L315.43 166.70L315.43 166.70Q314.04 162.86 314.04 158.73L314.04 158.73L314.04 158.73Q314.04 154.60 315.39 150.88L315.39 150.88L315.39 150.88Q316.74 147.16 319.17 144.21L319.17 144.21L319.17 144.21Q321.60 141.26 324.99 139.27L324.99 139.27L324.99 139.27Q328.39 137.28 332.47 136.59L332.47 136.59L332.47 136.59Q333.09 136.55 333.09 136.32L333.09 136.32L333.09 136.32Q333.09 135.89 333.00 135.53L333.00 135.53L333.00 135.53Q332.90 135.16 332.90 134.89L332.90 134.89L332.90 134.89Q332.90 134.47 333.05 134.31L333.05 134.31L333.05 134.31Q333.21 134.16 333.40 134.16L333.40 134.16L333.40 134.16Q340.77 134.16 345.94 135.84L345.94 135.84L345.94 135.84Q351.11 137.51 354.35 140.41L354.35 140.41L354.35 140.41Q357.59 143.30 359.05 147.23L359.05 147.23L359.05 147.23Q360.52 151.17 360.52 155.68L360.52 155.68L360.52 155.68Q360.52 161.43 358.59 165.94L358.59 165.94L358.59 165.94Q356.66 170.46 353.32 173.58L353.32 173.58L353.32 173.58Q349.99 176.71 345.53 178.34L345.53 178.34L345.53 178.34Q341.08 179.98 336.02 179.98ZM328.89 158.31L328.89 158.31L328.89 158.31Q328.89 160.39 329.33 162.43L329.33 162.43L329.33 162.43Q329.77 164.48 330.80 166.14L330.80 166.14L330.80 166.14Q331.82 167.79 333.48 168.82L333.48 168.82L333.48 168.82Q335.14 169.84 337.61 169.84L337.61 169.84L337.61 169.84Q339.38 169.76 340.71 169.05L340.71 169.05L340.71 169.05Q342.04 168.33 343.01 167.20L343.01 167.20L343.01 167.20Q343.97 166.06 344.61 164.63L344.61 164.63L344.61 164.63Q345.24 163.20 345.61 161.68L345.61 161.68L345.61 161.68Q345.98 160.16 346.13 158.69L346.13 158.69L346.13 158.69Q346.28 157.23 346.28 156.03L346.28 156.03L346.28 156.03Q346.28 154.02 345.69 152.09L345.69 152.09L345.69 152.09Q345.09 150.17 343.93 148.70L343.93 148.70L343.93 148.70Q342.77 147.23 341.06 146.33L341.06 146.33L341.06 146.33Q339.34 145.42 337.10 145.42L337.10 145.42L337.10 145.42Q334.79 145.42 333.21 146.79L333.21 146.79L333.21 146.79Q331.63 148.16 330.68 150.17L330.68 150.17L330.68 150.17Q329.74 152.17 329.31 154.39L329.31 154.39L329.31 154.39Q328.89 156.61 328.89 158.31ZM369.16 179.37L369.16 179.21L369.16 179.21Q369.35 176.40 369.54 173.77L369.54 173.77L369.54 173.77Q369.74 171.15 369.89 168.68L369.89 168.68L371.28 150.47L371.28 150.47Q371.51 148.39 371.67 146.68L371.67 146.68L371.67 146.68Q371.82 144.96 371.92 143.32L371.92 143.32L371.92 143.32Q372.01 141.68 372.11 140.00L372.11 140.00L372.11 140.00Q372.21 138.32 372.32 136.28L372.32 136.28L372.32 136.28Q371.05 136.24 369.64 136.24L369.64 136.24L369.64 136.24Q368.23 136.24 366.69 136.24L366.69 136.24L359.25 136.24L359.25 136.24Q358.82 136.24 358.72 135.91L358.72 135.91L358.72 135.91Q358.63 135.59 358.63 135.32L358.63 135.32L358.63 135.05L362.87 123.90L362.83 123.74L362.83 123.74Q362.83 123.55 363.08 123.41L363.08 123.41L363.08 123.41Q363.33 123.28 364.22 123.20L364.22 123.20L364.22 123.20Q369.54 122.89 374.54 122.60L374.54 122.60L374.54 122.60Q379.54 122.32 384.42 122.08L384.42 122.08L384.42 122.08Q389.29 121.85 394.17 121.62L394.17 121.62L394.17 121.62Q399.05 121.39 404.22 121.20L404.22 121.20L404.22 121.20Q404.69 121.20 405.21 121.31L405.21 121.31L405.21 121.31Q405.73 121.43 405.73 122.16L405.73 122.16L405.73 122.16Q405.73 122.24 405.69 122.32L405.69 122.32L405.69 122.32Q405.65 122.39 405.65 122.47L405.65 122.47L405.65 122.47Q405.03 124.05 404.51 125.48L404.51 125.48L404.51 125.48Q403.99 126.91 403.49 128.29L403.49 128.29L403.49 128.29Q402.99 129.68 402.47 131.11L402.47 131.11L402.47 131.11Q401.95 132.54 401.33 134.12L401.33 134.12L401.33 134.12Q401.29 134.16 401.18 134.49L401.18 134.49L401.18 134.49Q401.06 134.81 400.83 135.22L400.83 135.22L400.83 135.22Q400.60 135.62 400.21 135.97L400.21 135.97L400.21 135.97Q399.83 136.32 399.25 136.36L399.25 136.36L399.25 136.36Q399.05 136.32 398.86 136.32L398.86 136.32L398.86 136.32Q398.67 136.32 398.44 136.32L398.44 136.32L388.14 136.32L388.14 136.32Q387.94 138.29 387.77 140.48L387.77 140.48L387.77 140.48Q387.60 142.68 387.37 144.77L387.37 144.77L384.55 174.89L384.55 174.89Q384.51 175.24 384.42 175.59L384.42 175.59L384.42 175.59Q384.32 175.93 383.89 176.09L383.89 176.09L372.98 180.02L372.98 180.02Q372.55 180.18 371.86 180.41L371.86 180.41L371.86 180.41Q371.16 180.64 370.51 180.64L370.51 180.64L370.51 180.64Q369.97 180.64 369.56 180.37L369.56 180.37L369.56 180.37Q369.16 180.10 369.16 179.37L369.16 179.37Z" fill="#0D6318"/></svg>